# xmcd
#
# Track frame offsets:
#	150
#	31167
#	58980
#	73967
#	99351
#	134926
#	167105
#	193134
#	213566
#	247951
#	265942
#	298209
#	314516
#	332011
#
# Disc length: 4745 seconds
#
# Revision: 0
# Processed by: cddbd v1.5.2PL0 Copyright (c) Steve Scherf et al.
# Submitted via: EasyCDDAExtractor 8.2.3.1
#
DISCID=e912870e
DTITLE=Various Artist - Black Pure Blues CD-2
DYEAR=2002
DGENRE=Blues
TTITLE0=PINETOP PERKINS - Every Day I Have the Blues
TTITLE1=LONG JOHN HUNTER - Irene
TTITLE2=LONNIE BROOCKS - Boomerang
TTITLE3=JOHN LEE HOOKER - Traveling Blues
TTITLE4=JUNIOR WELLS - Cry for Me Baby
TTITLE5=AARON BURTON - Stuck in Chicago
TTITLE6=BILL PERRY - Doun
TTITLE7=BILLY BRANCH - New Kid on the Block
TTITLE8=MELVIN TAYLOR - Texas Flood
TTITLE9=JOHNNY COPELAND - Lion's Den
TTITLE10=CAREY BELL - Teardrops
TTITLE11=JAMES COTTON - Ying-Yang
TTITLE12=KENNY NEAL - My Babe
TTITLE13=LIGHTNIN' HOPKINS - Last Night Blues
EXTD=
EXTT0=
EXTT1=
EXTT2=
EXTT3=
EXTT4=
EXTT5=
EXTT6=
EXTT7=
EXTT8=
EXTT9=
EXTT10=
EXTT11=
EXTT12=
EXTT13=
PLAYORDER=
